# xmcd
#
# Track frame offsets:
# 150
# 12506
# 26930
# 40337
# 51967
# 64803
# 76141
# 87360
# 100969
# 112263
# 123393
# 137946
#
# Disc length: 2027 seconds
#
#
# Revision: 0
# Processed by: cddbd v1.5.2PL0 Copyright (c) Steve Scherf et al.
# Submitted via: FreeRIP 2.951 
#
DISCID=ac07e90c
DTITLE=Musical JM -  Noite de festa
DYEAR=1991
DGENRE=
TTITLE0=Encontrei a felicidade
TTITLE1=Cheiro de outro alguém
TTITLE2=Menti pra você
TTITLE3=Ainda não sei
TTITLE4=Foi duas semanas
TTITLE5=Sou seu brigão
TTITLE6=Noite de festa
TTITLE7=Não suportei a despedida
TTITLE8=Não tem saber da minha vida
TTITLE9=Moral não tem preço
TTITLE10=Se não for por amor
TTITLE11=Mais uma noite vou chorar
EXTD=
EXTT0=
EXTT1=
EXTT2=
EXTT3=
EXTT4=
EXTT5=
EXTT6=
EXTT7=
EXTT8=
EXTT9=
EXTT10=
EXTT11=
PLAYORDER=
